<svg width="24" height="24" viewBox="0 0 24 24" fill="none" xmlns="http://www.w3.org/2000/svg">
<path d="M12 8H13M12 8C9.23858 8 7 10.2386 7 13L7 19.2222C7 20.2041 8.02335 21 9.28571 21L15.7143 21C16.9767 21 18 20.2041 18 19.2222V13C18 10.2386 15.7614 8 13 8M12 8H8.5C8.22386 8 8 7.77614 8 7.5V5C8 3.89543 8.89543 3 10 3H15C16.1046 3 17 3.89543 17 5V7.5C17 7.77614 16.7761 8 16.5 8H13M12.5 13.5V15M12.5 15V16.5M12.5 15H14M12.5 15H11" stroke="white" stroke-width="2" stroke-miterlimit="2.20439" stroke-linecap="square"/>
</svg>
