<?xml version="1.0" standalone="no"?>
<!DOCTYPE svg PUBLIC "-//W3C//DTD SVG 20010904//EN"
 "http://www.w3.org/TR/2001/REC-SVG-20010904/DTD/svg10.dtd">
<svg version="1.0" xmlns="http://www.w3.org/2000/svg"
 width="24.000000pt" height="24.000000pt" viewBox="0 0 24.000000 24.000000"
 preserveAspectRatio="xMidYMid meet">

<g transform="translate(0.000000,24.000000) scale(0.100000,-0.100000)"
fill="#000000" stroke="none">
<path d="M122 214 c-42 -29 -18 -104 35 -104 49 0 72 76 31 104 -12 9 -27 16
-33 16 -6 0 -21 -7 -33 -16z m68 -19 c15 -19 6 -61 -16 -69 -18 -7 -64 18 -64
35 0 42 54 65 80 34z"/>
<path d="M34 96 c-11 -28 1 -51 25 -51 28 0 47 25 38 49 -8 20 -56 21 -63 2z
m52 -7 c10 -17 -23 -46 -37 -32 -7 7 -9 19 -6 27 7 18 33 21 43 5z"/>
<path d="M140 61 c-7 -15 -6 -24 6 -36 19 -18 33 -16 48 7 7 12 6 21 -3 32
-18 22 -38 20 -51 -3z m40 -16 c0 -8 -7 -15 -15 -15 -8 0 -15 7 -15 15 0 8 7
15 15 15 8 0 15 -7 15 -15z"/>
</g>
</svg>
