<svg width="24" height="24" viewBox="0 0 24 24" fill="none" xmlns="http://www.w3.org/2000/svg">
<path d="M20.853 0.500941C20.8895 0.592528 20.9076 0.690421 20.9063 0.789017C20.905 0.887612 20.8842 0.984976 20.8452 1.07554C20.8062 1.1661 20.7497 1.24808 20.679 1.31678C20.6082 1.38549 20.5247 1.43957 20.433 1.47594L17.052 2.82894L16.452 5.71944C17.016 5.86194 17.5245 6.04194 17.91 6.26994C18.252 6.47244 18.75 6.86394 18.75 7.49994C18.75 7.56894 18.744 7.63494 18.7335 7.69794L17.2905 21.2999C17.2676 21.5753 17.1855 21.8425 17.0499 22.0833C16.9142 22.324 16.7282 22.5327 16.5045 22.6949C15.7725 23.2049 14.2635 23.9999 11.9895 23.9999C9.7155 23.9999 8.2065 23.2049 7.4745 22.6949C7.25081 22.5327 7.06479 22.324 6.92914 22.0833C6.79349 21.8425 6.7114 21.5753 6.6885 21.2999L5.265 7.69794C5.2544 7.63248 5.24938 7.56625 5.25 7.49994C5.25 6.86394 5.748 6.47244 6.09 6.26994C6.483 6.03894 7.0005 5.85594 7.575 5.71194C8.736 5.42094 10.3005 5.24994 12 5.24994C13.068 5.24994 14.0835 5.31744 14.9775 5.44044L15.6735 2.11794C15.7 1.99864 15.7553 1.88762 15.8345 1.79455C15.9137 1.70148 16.0145 1.62918 16.128 1.58394L19.878 0.0839407C20.0626 0.00999011 20.269 0.0123758 20.4518 0.0905733C20.6347 0.168771 20.779 0.316378 20.853 0.500941ZM14.652 6.91044C13.7723 6.80098 12.8865 6.74737 12 6.74994C10.386 6.74994 8.9505 6.91494 7.9395 7.16694C7.60478 7.24375 7.279 7.35536 6.9675 7.49994C7.1865 7.60944 7.5105 7.72494 7.9395 7.83294C8.9505 8.08494 10.386 8.24994 12 8.24994C12.8565 8.24994 13.6635 8.20494 14.382 8.12244L14.652 6.91044ZM15.09 9.54444C14.1675 9.67494 13.113 9.74994 12 9.74994C10.3005 9.74994 8.736 9.57894 7.575 9.28794C7.35498 9.23341 7.1373 9.16986 6.9225 9.09744L8.1795 21.1424C8.199 21.3239 8.2695 21.4214 8.3325 21.4649C8.868 21.8384 10.0845 22.4999 11.9895 22.4999C13.8945 22.4999 15.111 21.8384 15.6465 21.4649C15.7095 21.4214 15.7815 21.3239 15.7995 21.1424L17.0775 9.09744C16.8627 9.16985 16.645 9.2334 16.425 9.28794C15.9846 9.3956 15.539 9.48071 15.09 9.54294V9.54444ZM6.7005 7.32594C6.7005 7.32594 6.705 7.32894 6.708 7.33494L6.7005 7.32594ZM17.2995 7.32594L17.292 7.33494C17.295 7.32894 17.2995 7.32594 17.2995 7.32594ZM17.031 7.49994C16.7404 7.36471 16.4368 7.25917 16.125 7.18494L15.9765 7.85244L16.059 7.83294C16.488 7.72494 16.812 7.60944 17.031 7.49994Z" fill="black"/>
</svg>
