<svg width="24" height="24" viewBox="0 0 24 24" fill="none" xmlns="http://www.w3.org/2000/svg">
<path d="M3.50759 18.0987L2.80742 17.3848L3.50759 18.0987ZM5.95846 20.5022L6.65863 21.2162L5.95846 20.5022ZM4.37423 14.4331L3.67435 13.7188L3.67406 13.7191L4.37423 14.4331ZM9.39907 19.3608L8.70005 18.6457L8.6989 18.6468L9.39907 19.3608ZM19.5828 7.4904L18.8826 6.77643C18.6909 6.9645 18.5828 7.2218 18.5828 7.4904C18.5828 7.759 18.6909 8.01631 18.8826 8.20438L19.5828 7.4904ZM20.4067 8.29837L19.7065 9.01235V9.01235L20.4067 8.29837ZM20.4067 11.1077L19.7065 10.3937L20.4067 11.1077ZM17.542 11.1077L18.2421 10.3937L17.542 11.1077ZM12.7324 6.39118L12.0323 7.10516L12.7324 6.39118ZM12.7324 3.58183L12.0323 2.86786L12.7324 3.58183ZM15.5972 3.58183L16.2973 2.86786L16.2973 2.86786L15.5972 3.58183ZM16.4001 4.36923L15.6999 5.0832C16.0888 5.46457 16.7114 5.46457 17.1003 5.0832L16.4001 4.36923ZM16.8482 3.92982L16.148 3.21584L16.148 3.21584L16.8482 3.92982ZM20.0309 3.92982L19.3307 4.6438V4.6438L20.0309 3.92982ZM20.0309 7.05099L19.3307 6.33702L19.3307 6.33702L20.0309 7.05099ZM3.53945 18.0683L4.22142 18.7996C4.51472 18.5262 4.61627 18.1039 4.47941 17.727L3.53945 18.0683ZM6.13309 20.3025L6.34033 19.3242C5.9587 19.2434 5.56489 19.3918 5.33161 19.7045L6.13309 20.3025ZM11.5317 14.7171C11.926 14.3304 11.9322 13.6973 11.5455 13.303C11.1588 12.9087 10.5256 12.9025 10.1313 13.2892L11.5317 14.7171ZM8.39095 14.9959C7.99663 15.3826 7.99044 16.0157 8.37713 16.41C8.76383 16.8043 9.39696 16.8105 9.79128 16.4238L8.39095 14.9959ZM4.20776 19.7882C3.93075 19.5166 3.93075 19.0844 4.20776 18.8127L2.80742 17.3848C1.73086 18.4405 1.73086 20.1605 2.80742 21.2162L4.20776 19.7882ZM5.25829 19.7882C4.97039 20.0706 4.49567 20.0706 4.20776 19.7882L2.80742 21.2162C3.87309 22.2613 5.59296 22.2613 6.65863 21.2162L5.25829 19.7882ZM17.0004 10.5319L8.70005 18.6457L10.0981 20.0759L18.3985 11.9621L17.0004 10.5319ZM5.07411 15.1474L13.3588 7.0295L11.959 5.60097L3.67435 13.7188L5.07411 15.1474ZM18.8826 8.20438L19.7065 9.01235L21.1069 7.5844L20.283 6.77643L18.8826 8.20438ZM19.7065 9.01235C20.0978 9.39608 20.0978 10.01 19.7065 10.3937L21.1069 11.8217C22.2977 10.6539 22.2977 8.75222 21.1069 7.5844L19.7065 9.01235ZM19.7065 10.3937C19.3043 10.7882 18.6443 10.7882 18.2421 10.3937L16.8418 11.8217C18.0217 12.9788 19.9269 12.9788 21.1069 11.8217L19.7065 10.3937ZM18.2421 10.3937L13.4326 5.67721L12.0323 7.10516L16.8418 11.8217L18.2421 10.3937ZM13.4326 5.67721C13.0413 5.29347 13.0413 4.67955 13.4326 4.29581L12.0323 2.86786C10.8414 4.03568 10.8414 5.93733 12.0323 7.10516L13.4326 5.67721ZM13.4326 4.29581C13.8348 3.9014 14.4948 3.9014 14.897 4.29581L16.2973 2.86786C15.1174 1.71071 13.2122 1.71071 12.0323 2.86786L13.4326 4.29581ZM14.897 4.29581L15.6999 5.0832L17.1003 3.65525L16.2973 2.86786L14.897 4.29581ZM17.1003 5.0832L17.5483 4.6438L16.148 3.21584L15.6999 3.65525L17.1003 5.0832ZM17.5483 4.6438C18.0383 4.16327 18.8407 4.16327 19.3307 4.6438L20.731 3.21584C19.4633 1.97259 17.4158 1.97259 16.148 3.21584L17.5483 4.6438ZM19.3307 4.6438C19.8098 5.11364 19.8098 5.86717 19.3307 6.33702L20.731 7.76497C22.0097 6.51104 22.0097 4.46978 20.731 3.21584L19.3307 4.6438ZM19.3307 6.33702L18.8826 6.77643L20.283 8.20438L20.731 7.76497L19.3307 6.33702ZM4.47941 17.727C4.16355 16.8571 4.35957 15.8481 5.0744 15.1471L3.67406 13.7191C2.38413 14.9841 2.02364 16.8236 2.59949 18.4096L4.47941 17.727ZM4.20776 18.8127C4.2123 18.8083 4.21685 18.8039 4.22142 18.7996L2.85747 17.3369C2.84061 17.3526 2.82392 17.3686 2.80742 17.3848L4.20776 18.8127ZM8.6989 18.6468C8.06381 19.2696 7.17081 19.5001 6.34033 19.3242L5.92586 21.2808C7.37692 21.5882 8.96112 21.1909 10.0992 20.0748L8.6989 18.6468ZM5.33161 19.7045C5.31023 19.7331 5.28589 19.7612 5.25829 19.7882L6.65863 21.2162C6.75968 21.1171 6.85176 21.0115 6.93458 20.9005L5.33161 19.7045ZM10.1313 13.2892L8.39095 14.9959L9.79128 16.4238L11.5317 14.7171L10.1313 13.2892Z" fill="white"/>
</svg>
