<svg width="24" height="24" viewBox="0 0 24 24" fill="none" xmlns="http://www.w3.org/2000/svg">
<g clip-path="url(#clip0_203_26763)">
<path d="M12.9998 23.9992C11.409 23.9976 9.8838 23.3649 8.75893 22.24C7.63406 21.1152 7.00141 19.59 6.99982 17.9992C6.99982 16.4392 8.19982 13.9542 10.5518 10.6112C10.8311 10.2222 11.1989 9.90528 11.625 9.68668C12.051 9.46808 12.523 9.35406 13.0018 9.35406C13.4807 9.35406 13.9526 9.46808 14.3787 9.68668C14.8047 9.90528 15.1726 10.2222 15.4518 10.6112C17.8048 13.9542 18.9998 16.4392 18.9998 17.9992C18.9982 19.59 18.3656 21.1152 17.2407 22.24C16.1158 23.3649 14.5906 23.9976 12.9998 23.9992ZM12.9998 11.3422C12.8402 11.341 12.6827 11.3788 12.541 11.4523C12.3993 11.5259 12.2777 11.6329 12.1868 11.7642C9.31082 15.8432 8.99982 17.4832 8.99982 17.9992C8.99982 19.06 9.42124 20.0774 10.1714 20.8276C10.9215 21.5777 11.939 21.9992 12.9998 21.9992C14.0607 21.9992 15.0781 21.5777 15.8282 20.8276C16.5784 20.0774 16.9998 19.06 16.9998 17.9992C16.9998 17.4832 16.6888 15.8432 13.8128 11.7642C13.7219 11.6329 13.6003 11.5259 13.4587 11.4523C13.317 11.3788 13.1595 11.341 12.9998 11.3422Z" fill="#374957"/>
<path d="M5 11.0009C3.67441 10.9993 2.40356 10.472 1.46622 9.53468C0.528882 8.59734 0.00158786 7.3265 0 6.0009C0 4.7409 0.842 3.1459 2.574 1.1239C2.87441 0.774652 3.24669 0.494382 3.66538 0.302249C4.08408 0.110116 4.53932 0.0106506 5 0.0106506C5.46068 0.0106506 5.91592 0.110116 6.33462 0.302249C6.75331 0.494382 7.12559 0.774652 7.426 1.1239C9.158 3.1439 10 4.7389 10 6.0009C9.99841 7.3265 9.47112 8.59734 8.53378 9.53468C7.59644 10.472 6.32559 10.9993 5 11.0009ZM5 2.0009C4.8273 2.00005 4.65655 2.03735 4.49994 2.11013C4.34333 2.1829 4.20471 2.28936 4.094 2.4219C2.151 4.6899 2 5.7329 2 6.0009C2 6.79655 2.31607 7.55961 2.87868 8.12222C3.44129 8.68483 4.20435 9.0009 5 9.0009C5.79565 9.0009 6.55871 8.68483 7.12132 8.12222C7.68393 7.55961 8 6.79655 8 6.0009C8 5.7349 7.849 4.6919 5.906 2.4249C5.79567 2.29171 5.6572 2.1846 5.50055 2.11129C5.3439 2.03798 5.17296 2.00028 5 2.0009Z" fill="#374957"/>
<path d="M19.5 9.96316C18.3069 9.96183 17.1631 9.4873 16.3195 8.64367C15.4759 7.80005 15.0013 6.65622 15 5.46316C15 4.37216 15.7 2.95716 17.146 1.13716C17.429 0.785014 17.7874 0.500853 18.1948 0.305606C18.6022 0.11036 19.0482 0.00900269 19.5 0.00900269C19.9518 0.00900269 20.3978 0.11036 20.8052 0.305606C21.2126 0.500853 21.571 0.785014 21.854 1.13716C23.3 2.95716 24 4.37216 24 5.46316C23.9987 6.65622 23.5241 7.80005 22.6805 8.64367C21.8369 9.4873 20.6931 9.96183 19.5 9.96316ZM19.5 1.99916C19.3485 1.99891 19.199 2.03308 19.0627 2.09908C18.9263 2.16508 18.8068 2.26119 18.713 2.38016C17.123 4.38416 17 5.24616 17 5.46316C17 6.1262 17.2634 6.76208 17.7322 7.23092C18.2011 7.69976 18.837 7.96316 19.5 7.96316C20.163 7.96316 20.7989 7.69976 21.2678 7.23092C21.7366 6.76208 22 6.1262 22 5.46316C22 5.24616 21.877 4.38416 20.287 2.38116C20.1933 2.26201 20.0738 2.16571 19.9375 2.09953C19.8011 2.03335 19.6516 1.99903 19.5 1.99916Z" fill="#374957"/>
</g>
<defs>
<clipPath id="clip0_203_26763">
<rect width="24" height="24" fill="white"/>
</clipPath>
</defs>
</svg>
