<svg width="7" height="7" viewBox="0 0 7 7" fill="none" xmlns="http://www.w3.org/2000/svg">
<path d="M1.99914 3.10958C2.49062 3.10958 2.88769 3.50665 2.88769 3.99813C2.88769 4.4896 2.49062 4.88667 1.99914 4.88667C1.50766 4.88667 1.1106 4.4896 1.1106 3.99813C1.1106 3.50665 1.50766 3.10958 1.99914 3.10958ZM4.10944 4.4424C4.25672 4.4424 4.39798 4.50091 4.50212 4.60506C4.60627 4.7092 4.66478 4.85046 4.66478 4.99774C4.66478 5.14503 4.60627 5.28628 4.50212 5.39043C4.39798 5.49457 4.25672 5.55308 4.10944 5.55308C3.96215 5.55308 3.8209 5.49457 3.71675 5.39043C3.61261 5.28628 3.5541 5.14503 3.5541 4.99774C3.5541 4.85046 3.61261 4.7092 3.71675 4.60506C3.8209 4.50091 3.96215 4.4424 4.10944 4.4424ZM4.22051 1.11035C4.39554 1.11035 4.56885 1.14483 4.73055 1.21181C4.89226 1.27879 5.03919 1.37696 5.16295 1.50073C5.28672 1.62449 5.38489 1.77142 5.45187 1.93312C5.51885 2.09483 5.55333 2.26814 5.55333 2.44317C5.55333 3.179 4.95633 3.77599 4.22051 3.77599C3.86702 3.77599 3.52801 3.63557 3.27806 3.38562C3.02811 3.13566 2.88769 2.79666 2.88769 2.44317C2.88769 1.70734 3.48468 1.11035 4.22051 1.11035Z" fill="black"/>
</svg>
