<svg width="24" height="24" viewBox="0 0 24 24" fill="none" xmlns="http://www.w3.org/2000/svg">
<path d="M9 1.5V6H10.5V6.79688C7.42383 7.125 6.09375 9.39844 6.09375 9.39844L6 9.5625V22.5H16.5V9.5625L16.4062 9.39844C16.4062 9.39844 15.0762 7.125 12 6.79688V6H13.5V1.5H9ZM18 1.5C17.5869 1.5 17.25 1.83691 17.25 2.25C17.25 2.66309 17.5869 3 18 3C18.4131 3 18.75 2.66309 18.75 2.25C18.75 1.83691 18.4131 1.5 18 1.5ZM10.5 3H12V4.5H10.5V3ZM15.75 3C15.3369 3 15 3.33691 15 3.75C15 4.16309 15.3369 4.5 15.75 4.5C16.1631 4.5 16.5 4.16309 16.5 3.75C16.5 3.33691 16.1631 3 15.75 3ZM18 4.5C17.5869 4.5 17.25 4.83691 17.25 5.25C17.25 5.66309 17.5869 6 18 6C18.4131 6 18.75 5.66309 18.75 5.25C18.75 4.83691 18.4131 4.5 18 4.5ZM11.25 8.25C12.5537 8.25 13.4326 8.61035 14.0156 9H8.48438C9.06738 8.61035 9.94629 8.25 11.25 8.25ZM7.5 10.5H15V21H7.5V10.5ZM11.25 13.5C10.0166 13.5 9 14.5166 9 15.75C9 16.9834 10.0166 18 11.25 18C12.4834 18 13.5 16.9834 13.5 15.75C13.5 14.5166 12.4834 13.5 11.25 13.5ZM11.25 15C11.6719 15 12 15.3281 12 15.75C12 16.1719 11.6719 16.5 11.25 16.5C10.8281 16.5 10.5 16.1719 10.5 15.75C10.5 15.3281 10.8281 15 11.25 15Z" fill="black"/>
</svg>
