<svg width="24" height="24" viewBox="0 0 24 24" fill="none" xmlns="http://www.w3.org/2000/svg">
<path d="M14.9961 21H6C4.89543 21 4 20.1046 4 19V5C4 3.89543 4.89543 3 6 3H12C13.1046 3 14 3.89543 14 5V9.08342M14.9961 21C16.5329 21.001 18.0701 20.4152 19.2427 19.2426C21.5858 16.8995 21.5858 13.1005 19.2427 10.7573C18.2083 9.723 16.8903 9.14525 15.539 9.0241C15.0262 8.97812 14.5087 8.99789 14 9.08342M14.9961 21C13.4619 20.999 11.9279 20.4132 10.7574 19.2426C9.72689 18.2121 9.12412 16.8459 9.00002 15.5C8.84193 13.7854 9.44471 12.07 10.7574 10.7573C11.6737 9.84106 12.8126 9.28308 14 9.08342M6.995 7H7.005M6.995 12H7.005M6.995 17H7.005M10.995 7H11.005M9.00002 15H21" stroke="white" stroke-width="2" stroke-linecap="round" stroke-linejoin="round"/>
</svg>
